<?xml version="1.0" encoding="UTF-8" standalone="no"?>
<!-- Uploaded to: SVG Repo, www.svgrepo.com, Generator: SVG Repo Mixer Tools -->

<svg
   width="740.625"
   height="738.54688"
   viewBox="0 0 474 472.67"
   version="1.1"
   id="svg1"
   xmlns="http://www.w3.org/2000/svg"
   xmlns:svg="http://www.w3.org/2000/svg">
  <defs
     id="defs1" />
  <path
     d="m 344.1,456.17 c -15.6,4.9 -31.3,10 -46.6,16.5 h 68.8 c -7.4,-5.2 -14.8,-10.7 -22.2,-16.5 z"
     id="path25"
     style="fill:#ff0018;fill-opacity:1" />
  <path
     d="m 297.7,415.77 c -43.1,10.9 -86.1,23.1 -123.5,56.9 h 70.6 c 28.5,-7.5 56.2,-20 76.9,-35 -8,-7 -16,-14.3 -24,-21.9 z"
     id="path24"
     style="fill:#ff0018;fill-opacity:1" />
  <path
     d="m 252.3,368.87 c -41.7,14.1 -83.6,29.4 -118.8,69.8 42.1,4.8 101.9,-18.4 138,-49.1 -6.5,-6.7 -12.9,-13.7 -19.2,-20.7 z"
     id="path23"
     style="fill:#ffa52c;fill-opacity:1" />
  <path
     d="m 216.8,326.97 c -42.1,9.6 -84.4,19.9 -121,54.6 41.5,7.9 101.6,-8.3 138.2,-33.7 -5.8,-6.8 -11.6,-13.8 -17.2,-20.9 z"
     id="path22"
     style="fill:#ffa52c;fill-opacity:1" />
  <path
     d="m 474,321.27 c -32.9,25.6 -48.1,51.6 -68.4,83.8 8.8,6.9 17.6,13.6 26.5,20 17.5,-14.4 28.2,-33.1 41.9,-53.3 z"
     id="path21"
     style="fill:#ff0018;fill-opacity:1" />
  <path
     d="m 182.7,282.17 c -40.4,3.3 -81.2,6.4 -120.44,34.1 37.84,13.2 98.04,4.6 133.74,-15.9 -4.5,-6 -8.9,-12.1 -13.3,-18.2 z"
     id="path20"
     style="fill:#ffff41;fill-opacity:1" />
  <path
     d="m 466.3,258.67 c -51,26.5 -77.5,68.7 -103.4,110.6 7.4,6.6 14.9,13.1 22.5,19.4 38.1,-30.4 74.2,-85 80.9,-130 z"
     id="path19"
     style="fill:#ff0018;fill-opacity:1" />
  <path
     d="m 150.8,235.57 c -36.9,1.5 -74.06,4.6 -110.83,28.2 34.33,13.8 88.63,9.8 125.63,-5.8 -5,-7.4 -10,-14.9 -14.8,-22.4 z"
     id="path18"
     style="fill:#ffff41;fill-opacity:1" />
  <path
     d="m 421.7,233.77 c -49.1,23.2 -75.2,59.8 -100.4,96.5 6.7,6.6 13.5,13.2 20.3,19.6 37.7,-27.1 73.5,-76 80.1,-116.1 z"
     id="path17"
     style="fill:#ffa52c;fill-opacity:1" />
  <path
     d="m 376.5,206.27 c -43.5,19.8 -68.7,52.4 -92.2,85.9 6.7,7.1 13.4,14.2 20.2,21.2 33.4,-26.1 64.5,-69.9 72,-107.1 z"
     id="path16"
     style="fill:#ffa52c;fill-opacity:1" />
  <path
     d="m 114.9,197.87 c -26.8,0 -54.11,2.3 -82.43,17.9 27.65,13.4 74.43,12.3 105.73,-0.1 -3.6,-5.8 -7.1,-11.7 -10.6,-17.6 -4.2,-0.1 -8.4,-0.2 -12.7,-0.2 z"
     id="path15"
     style="fill:#008018;fill-opacity:1" />
  <path
     d="m 335.2,178.47 c -39.6,17.7 -62.6,46.7 -84,76.5 5.8,6.7 11.6,13.4 17.5,20 30.7,-23.4 59.6,-63 66.5,-96.5 z"
     id="path14"
     style="fill:#ffff41;fill-opacity:1" />
  <path
     d="m 98.9,161.17 c -26.84,-0.1 -54.08,2.3 -82.42,17.9 26.28,12.8 69.92,12.3 101.12,1.6 -3.7,-6.5 -7.2,-12.9 -10.7,-19.4 -2.7,-0.1 -5.3,-0.1 -8,-0.1 z"
     id="path13"
     style="fill:#008018;fill-opacity:1" />
  <path
     d="m 293.4,144.97 c -35.5,15.8 -57.7,40.9 -77.3,67.3 6,7.7 12.2,15.4 18.5,23 27.7,-23.8 52.5,-59.6 58.8,-90.3 z"
     id="path12"
     style="fill:#ffff41;fill-opacity:1" />
  <path
     d="m 74.3,121.27 c -21.73,0.1 -43.47,2.5 -64.55,14.4 23.57,10.2 59.64,10.3 85.15,2.3 -2.7,-5.5 -5.4,-11.1 -8,-16.6 -2.7,-0.1 -5.5,-0.1 -8.25,-0.1 z"
     id="path11"
     style="fill:#0000f9;fill-opacity:1" />
  <path
     d="m 259.6,117.97 c -32.7,13.9 -52,36.7 -69.7,60.2 4.3,5.8 8.7,11.6 13.1,17.3 26.1,-18.4 50.7,-50.5 56.6,-77.5 z"
     id="path10"
     style="fill:#008018;fill-opacity:1" />
  <path
     d="m 41.65,84.47 c -13.6,0.1 -27.46,2.2 -41.65,7.7 20.75,13 53.96,18.8 81,16.3 -3.28,-7.3 -6.4,-14.5 -9.38,-21.7 -9,-1.3 -18.07,-2.2 -27.25,-2.3 z"
     id="path9"
     style="fill:#0000f9;fill-opacity:1" />
  <path
     d="m 230.6,82.77 c -31.5,13.4 -50.6,35 -67.8,57.6 4.3,6.2 8.7,12.4 13.1,18.5 25.3,-18.7 49,-49.8 54.7,-76.1 z"
     id="path8"
     style="fill:#008018;fill-opacity:1" />
  <path
     d="m 202.5,56.83 c -27.8,10.8 -45.5,30.34 -61.8,50.54 3.5,5.4 7.1,10.8 10.7,16.2 22.4,-15.8 44.3,-42.9 51.1,-66.74 z"
     id="path7"
     style="fill:#0000f9;fill-opacity:1" />
  <path
     d="m 27.86,47.35 c -7.31,0 -14.87,0.83 -22.77,2.76 C 19.3,62.24 43.75,70.18 65.6,71.6 62.98,64.79 60.51,58.02 58.18,51.29 48.42,48.96 38.4,47.32 27.86,47.35 Z"
     id="path6"
     style="fill:#86007d;fill-opacity:1" />
  <path
     d="m 168.2,27.15 c -22.2,10.69 -37.1,26.96 -49.9,44.61 4.1,6.72 8.2,13.41 12.5,20.21 17.8,-18 33.2,-43.11 37.4,-64.82 z"
     id="path5"
     style="fill:#0000f9;fill-opacity:1" />
  <path
     d="m 131.6,16.2 c -13.3,5.97 -23.5,14.12 -32.2,23.3 3.4,5.95 6.8,11.92 10.3,17.9 10.7,-12.79 19.2,-27.8 21.9,-41.2 z"
     id="path4"
     style="fill:#86007d;fill-opacity:1" />
  <path
     d="M 66.02,15.6 C 88.6,94.97 135.9,185.77 194,267.17 c 62.5,87.4 137.5,164 205.5,205.5 h 72 C 306.7,373.67 153.5,183.07 66.02,15.6 Z"
     id="path3" />
  <path
     d="m 28.18,14.53 c -5.47,0.1 -11.12,0.85 -17.01,2.59 10,10.35 26.54,17.43 42.18,19.64 C 51.24,30.1 49.28,23.49 47.48,16.94 41.24,15.42 34.85,14.44 28.18,14.53 Z"
     id="path2"
     style="fill:#86007d;fill-opacity:1" />
  <path
     d="M 107.3,7.6293944e-8 C 98.6,3.7400001 91.6,8.5700001 85.4,14.01 c 2.5,4.7 5.1,9.41 7.7,14.15 C 100.1,19.09 105.4,9.0800001 107.3,7.6293944e-8 Z"
     id="path1"
     style="fill:#86007d;fill-opacity:1" />
</svg>
