<?xml version="1.0" encoding="UTF-8" standalone="no"?>
<!-- Uploaded to: SVG Repo, www.svgrepo.com, Generator: SVG Repo Mixer Tools -->

<svg
   width="800px"
   height="800px"
   viewBox="0 0 512 512"
   version="1.1"
   id="svg1"
   sodipodi:docname="fern-colors.svg"
   inkscape:version="1.4 (e7c3feb1, 2024-10-09)"
   inkscape:export-filename="fern-colors-web.svg"
   inkscape:export-xdpi="96"
   inkscape:export-ydpi="96"
   xmlns:inkscape="http://www.inkscape.org/namespaces/inkscape"
   xmlns:sodipodi="http://sodipodi.sourceforge.net/DTD/sodipodi-0.dtd"
   xmlns="http://www.w3.org/2000/svg"
   xmlns:svg="http://www.w3.org/2000/svg">
  <defs
     id="defs1" />
  <sodipodi:namedview
     id="namedview1"
     pagecolor="#ffffff"
     bordercolor="#000000"
     borderopacity="0.25"
     inkscape:showpageshadow="2"
     inkscape:pageopacity="0.0"
     inkscape:pagecheckerboard="0"
     inkscape:deskcolor="#d1d1d1"
     inkscape:zoom="1.26125"
     inkscape:cx="400"
     inkscape:cy="399.60357"
     inkscape:window-width="1744"
     inkscape:window-height="1289"
     inkscape:window-x="460"
     inkscape:window-y="81"
     inkscape:window-maximized="0"
     inkscape:current-layer="svg1"
     inkscape:export-bgcolor="#ffffff00" />
  <path
     d="m 364.1,477.5 c -15.6,4.9 -31.3,10 -46.6,16.5 h 68.8 c -7.4,-5.2 -14.8,-10.7 -22.2,-16.5 z"
     id="path25"
     style="fill:#ff0018;fill-opacity:1" />
  <path
     d="M 317.7,437.1 C 274.6,448 231.6,460.2 194.2,494 h 70.6 c 28.5,-7.5 56.2,-20 76.9,-35 -8,-7 -16,-14.3 -24,-21.9 z"
     id="path24"
     style="fill:#ff0018;fill-opacity:1" />
  <path
     d="m 272.3,390.2 c -41.7,14.1 -83.6,29.4 -118.8,69.8 42.1,4.8 101.9,-18.4 138,-49.1 -6.5,-6.7 -12.9,-13.7 -19.2,-20.7 z"
     id="path23"
     style="fill:#ffa52c;fill-opacity:1" />
  <path
     d="m 236.8,348.3 c -42.1,9.6 -84.4,19.9 -121,54.6 41.5,7.9 101.6,-8.3 138.2,-33.7 -5.8,-6.8 -11.6,-13.8 -17.2,-20.9 z"
     id="path22"
     style="fill:#ffa52c;fill-opacity:1" />
  <path
     d="m 494,342.6 c -32.9,25.6 -48.1,51.6 -68.4,83.8 8.8,6.9 17.6,13.6 26.5,20 17.5,-14.4 28.2,-33.1 41.9,-53.3 z"
     id="path21"
     style="fill:#ff0018;fill-opacity:1" />
  <path
     d="m 202.7,303.5 c -40.4,3.3 -81.2,6.4 -120.44,34.1 37.84,13.2 98.04,4.6 133.74,-15.9 -4.5,-6 -8.9,-12.1 -13.3,-18.2 z"
     id="path20"
     style="fill:#ffff41;fill-opacity:1" />
  <path
     d="m 486.3,280 c -51,26.5 -77.5,68.7 -103.4,110.6 7.4,6.6 14.9,13.1 22.5,19.4 38.1,-30.4 74.2,-85 80.9,-130 z"
     id="path19"
     style="fill:#ff0018;fill-opacity:1" />
  <path
     d="m 170.8,256.9 c -36.9,1.5 -74.06,4.6 -110.83,28.2 34.33,13.8 88.63,9.8 125.63,-5.8 -5,-7.4 -10,-14.9 -14.8,-22.4 z"
     id="path18"
     style="fill:#ffff41;fill-opacity:1" />
  <path
     d="m 441.7,255.1 c -49.1,23.2 -75.2,59.8 -100.4,96.5 6.7,6.6 13.5,13.2 20.3,19.6 37.7,-27.1 73.5,-76 80.1,-116.1 z"
     id="path17"
     style="fill:#ffa52c;fill-opacity:1" />
  <path
     d="m 396.5,227.6 c -43.5,19.8 -68.7,52.4 -92.2,85.9 6.7,7.1 13.4,14.2 20.2,21.2 33.4,-26.1 64.5,-69.9 72,-107.1 z"
     id="path16"
     style="fill:#ffa52c;fill-opacity:1" />
  <path
     d="m 134.9,219.2 c -26.8,0 -54.11,2.3 -82.43,17.9 27.65,13.4 74.43,12.3 105.73,-0.1 -3.6,-5.8 -7.1,-11.7 -10.6,-17.6 -4.2,-0.1 -8.4,-0.2 -12.7,-0.2 z"
     id="path15"
     style="fill:#008018;fill-opacity:1" />
  <path
     d="m 355.2,199.8 c -39.6,17.7 -62.6,46.7 -84,76.5 5.8,6.7 11.6,13.4 17.5,20 30.7,-23.4 59.6,-63 66.5,-96.5 z"
     id="path14"
     style="fill:#ffff41;fill-opacity:1" />
  <path
     d="m 118.9,182.5 c -26.84,-0.1 -54.08,2.3 -82.42,17.9 26.28,12.8 69.92,12.3 101.12,1.6 -3.7,-6.5 -7.2,-12.9 -10.7,-19.4 -2.7,-0.1 -5.3,-0.1 -8,-0.1 z"
     id="path13"
     style="fill:#008018;fill-opacity:1" />
  <path
     d="m 313.4,166.3 c -35.5,15.8 -57.7,40.9 -77.3,67.3 6,7.7 12.2,15.4 18.5,23 27.7,-23.8 52.5,-59.6 58.8,-90.3 z"
     id="path12"
     style="fill:#ffff41;fill-opacity:1" />
  <path
     d="m 94.3,142.6 c -21.73,0.1 -43.47,2.5 -64.55,14.4 23.57,10.2 59.64,10.3 85.15,2.3 -2.7,-5.5 -5.4,-11.1 -8,-16.6 -2.7,-0.1 -5.5,-0.1 -8.25,-0.1 z"
     id="path11"
     style="fill:#0000f9;fill-opacity:1" />
  <path
     d="m 279.6,139.3 c -32.7,13.9 -52,36.7 -69.7,60.2 4.3,5.8 8.7,11.6 13.1,17.3 26.1,-18.4 50.7,-50.5 56.6,-77.5 z"
     id="path10"
     style="fill:#008018;fill-opacity:1" />
  <path
     d="m 61.65,105.8 c -13.6,0.1 -27.46,2.2 -41.65,7.7 20.75,13 53.96,18.8 81,16.3 -3.28,-7.3 -6.4,-14.5 -9.38,-21.7 -9,-1.3 -18.07,-2.2 -27.25,-2.3 z"
     id="path9"
     style="fill:#0000f9;fill-opacity:1" />
  <path
     d="m 250.6,104.1 c -31.5,13.4 -50.6,35 -67.8,57.6 4.3,6.2 8.7,12.4 13.1,18.5 25.3,-18.7 49,-49.8 54.7,-76.1 z"
     id="path8"
     style="fill:#008018;fill-opacity:1" />
  <path
     d="m 222.5,78.16 c -27.8,10.8 -45.5,30.34 -61.8,50.54 3.5,5.4 7.1,10.8 10.7,16.2 22.4,-15.8 44.3,-42.9 51.1,-66.74 z"
     id="path7"
     style="fill:#0000f9;fill-opacity:1" />
  <path
     d="m 47.86,68.68 c -7.31,0 -14.87,0.83 -22.77,2.76 C 39.3,83.57 63.75,91.51 85.6,92.93 82.98,86.12 80.51,79.35 78.18,72.62 68.42,70.29 58.4,68.65 47.86,68.68 Z"
     id="path6"
     style="fill:#86007d;fill-opacity:1" />
  <path
     d="m 188.2,48.48 c -22.2,10.69 -37.1,26.96 -49.9,44.61 4.1,6.72 8.2,13.41 12.5,20.21 17.8,-18 33.2,-43.11 37.4,-64.82 z"
     id="path5"
     style="fill:#0000f9;fill-opacity:1" />
  <path
     d="m 151.6,37.53 c -13.3,5.97 -23.5,14.12 -32.2,23.3 3.4,5.95 6.8,11.92 10.3,17.9 10.7,-12.79 19.2,-27.8 21.9,-41.2 z"
     id="path4"
     style="fill:#86007d;fill-opacity:1" />
  <path
     d="M 86.02,36.93 C 108.6,116.3 155.9,207.1 214,288.5 c 62.5,87.4 137.5,164 205.5,205.5 h 72 C 326.7,395 173.5,204.4 86.02,36.93 Z"
     id="path3" />
  <path
     d="m 48.18,35.86 c -5.47,0.1 -11.12,0.85 -17.01,2.59 10,10.35 26.54,17.43 42.18,19.64 -2.11,-6.66 -4.07,-13.27 -5.87,-19.82 -6.24,-1.52 -12.63,-2.5 -19.3,-2.41 z"
     id="path2"
     style="fill:#86007d;fill-opacity:1" />
  <path
     d="m 127.3,21.33 c -8.7,3.74 -15.7,8.57 -21.9,14.01 2.5,4.7 5.1,9.41 7.7,14.15 7,-9.07 12.3,-19.08 14.2,-28.16 z"
     id="path1"
     style="fill:#86007d;fill-opacity:1" />
</svg>
